<svg xmlns="http://www.w3.org/2000/svg" xmlns:xlink="http://www.w3.org/1999/xlink" width="500" zoomAndPan="magnify" viewBox="0 0 375 374.999991" height="500" preserveAspectRatio="xMidYMid meet" version="1.0"><defs><clipPath id="id1"><path d="M 3.769531 3.769531 L 375 3.769531 L 375 375 L 3.769531 375 Z M 3.769531 3.769531 " clip-rule="nonzero"/></clipPath></defs><path fill="#347571" d="M 89.523438 80.238281 C 88.84375 78.957031 87.9375 77.371094 87.335938 76.164062 L 85.070312 71.484375 L 81.21875 74.878906 L 85.597656 77.671875 C 86.882812 78.425781 88.316406 79.484375 89.523438 80.238281 Z M 89.523438 80.238281 " fill-opacity="1" fill-rule="nonzero"/><path fill="#347571" d="M 174.976562 43.476562 C 175.277344 42.042969 175.429688 40.230469 175.65625 38.871094 L 176.5625 33.8125 L 171.429688 34.34375 L 173.390625 39.171875 C 173.917969 40.382812 174.523438 42.117188 174.976562 43.476562 Z M 174.976562 43.476562 " fill-opacity="1" fill-rule="nonzero"/><path fill="#347571" d="M 109.527344 65.746094 C 110.585938 65.066406 111.1875 64.613281 111.492188 64.3125 L 108.09375 58.800781 L 106.359375 59.933594 C 104.09375 61.367188 103.488281 63.253906 104.546875 64.992188 C 105.601562 66.800781 107.414062 66.953125 109.527344 65.746094 Z M 109.527344 65.746094 " fill-opacity="1" fill-rule="nonzero"/><path fill="#347571" d="M 203.8125 340.523438 C 203.511719 341.957031 203.359375 343.769531 203.132812 345.125 L 202.226562 350.183594 L 207.359375 349.65625 L 205.398438 344.824219 C 204.871094 343.542969 204.265625 341.878906 203.8125 340.523438 Z M 203.8125 340.523438 " fill-opacity="1" fill-rule="nonzero"/><path fill="#347571" d="M 128.929688 337.050781 C 130.363281 337.578125 131.496094 336.371094 132.402344 333.953125 C 133.15625 331.765625 133.15625 329.878906 131.648438 329.351562 C 130.136719 328.820312 128.855469 330.332031 128.175781 332.445312 C 127.34375 334.632812 127.496094 336.519531 128.929688 337.050781 Z M 128.929688 337.050781 " fill-opacity="1" fill-rule="nonzero"/><path fill="#347571" d="M 143.875 343.617188 C 142.367188 343.089844 141.082031 344.597656 140.402344 346.710938 C 139.574219 348.902344 139.800781 350.789062 141.234375 351.316406 C 142.667969 351.84375 143.800781 350.636719 144.707031 348.222656 C 145.386719 346.03125 145.386719 344.144531 143.875 343.617188 Z M 143.875 343.617188 " fill-opacity="1" fill-rule="nonzero"/><path fill="#347571" d="M 95.414062 309.195312 C 93.902344 307.988281 91.335938 309.117188 88.089844 313.269531 C 84.84375 317.347656 84.316406 320.066406 85.976562 321.273438 C 87.5625 322.554688 90.054688 321.195312 93.222656 317.195312 C 96.316406 313.269531 97.148438 310.554688 95.414062 309.195312 Z M 95.414062 309.195312 " fill-opacity="1" fill-rule="nonzero"/><path fill="#347571" d="M 264.957031 62.347656 C 266.621094 63.328125 269.035156 61.820312 271.601562 57.289062 C 274.167969 52.835938 274.320312 50.042969 272.582031 49.0625 C 270.769531 48.082031 268.582031 49.742188 266.015625 54.195312 C 263.523438 58.421875 263.148438 61.292969 264.957031 62.347656 Z M 264.957031 62.347656 " fill-opacity="1" fill-rule="nonzero"/><path fill="#347571" d="M 283.378906 74.730469 C 284.886719 75.9375 287.453125 74.804688 290.699219 70.652344 C 293.945312 66.574219 294.472656 63.859375 292.8125 62.652344 C 291.226562 61.367188 288.738281 62.726562 285.566406 66.726562 C 282.472656 70.652344 281.640625 73.371094 283.378906 74.730469 Z M 283.378906 74.730469 " fill-opacity="1" fill-rule="nonzero"/><path fill="#347571" d="M 113.832031 321.574219 C 112.171875 320.59375 109.753906 322.101562 107.1875 326.632812 C 104.621094 331.085938 104.472656 333.878906 106.207031 334.859375 C 108.019531 335.839844 110.207031 334.179688 112.773438 329.726562 C 115.265625 325.5 115.644531 322.632812 113.832031 321.574219 Z M 113.832031 321.574219 " fill-opacity="1" fill-rule="nonzero"/><path fill="#347571" d="M 269.261719 318.253906 C 268.203125 318.933594 267.601562 319.386719 267.296875 319.6875 L 270.695312 325.199219 L 272.433594 324.066406 C 274.695312 322.632812 275.300781 320.742188 274.242188 319.007812 C 273.1875 317.121094 271.375 316.96875 269.261719 318.253906 Z M 269.261719 318.253906 " fill-opacity="1" fill-rule="nonzero"/><g clip-path="url(#id1)"><path fill="#347571" d="M 189.394531 3.769531 C 86.882812 3.769531 3.769531 86.882812 3.769531 189.394531 C 3.769531 291.90625 86.882812 375.019531 189.394531 375.019531 C 291.90625 375.019531 375.019531 291.90625 375.019531 189.394531 C 375.019531 86.882812 291.90625 3.769531 189.394531 3.769531 Z M 314.480469 77.597656 L 301.496094 89.902344 L 301.570312 89.976562 L 306.023438 91.714844 L 303.757812 95.035156 L 297.644531 92.621094 L 294.625 89.449219 L 310.929688 73.898438 Z M 295.378906 59.554688 C 299.984375 63.179688 298.777344 68.839844 294.851562 73.898438 C 290.851562 79.03125 285.414062 81.371094 280.886719 77.75 C 276.128906 74.050781 277.566406 68.3125 281.414062 63.480469 C 285.640625 58.046875 290.851562 56.007812 295.378906 59.554688 Z M 261.410156 51.554688 C 264.882812 45.515625 269.714844 42.722656 274.695312 45.589844 C 279.753906 48.457031 279.375 54.347656 276.207031 59.859375 C 272.960938 65.519531 267.976562 68.613281 262.921875 65.746094 C 257.710938 62.726562 258.316406 56.914062 261.410156 51.554688 Z M 253.785156 35.25 L 233.855469 52.988281 L 231.140625 52.082031 L 251.144531 34.34375 Z M 254.464844 52.6875 C 253.105469 56.460938 249.785156 58.574219 246.160156 57.289062 C 242.464844 56.007812 241.40625 52.609375 242.613281 48.988281 C 244.199219 44.535156 247.824219 43.175781 250.917969 44.308594 C 254.164062 45.363281 255.824219 48.683594 254.464844 52.6875 Z M 230.386719 34.71875 C 231.96875 30.265625 235.59375 28.90625 238.6875 30.039062 C 241.933594 31.171875 243.59375 34.492188 242.238281 38.496094 C 240.878906 42.269531 237.554688 44.382812 233.933594 43.097656 C 230.234375 41.742188 229.101562 38.34375 230.386719 34.71875 Z M 192.414062 23.09375 L 197.925781 23.472656 L 202.226562 32.832031 C 203.4375 35.398438 204.71875 38.570312 205.699219 41.363281 L 205.777344 41.363281 C 205.851562 38.269531 206.003906 34.945312 206.304688 31.171875 L 206.832031 24.152344 L 211.664062 24.527344 L 209.925781 47.855469 L 203.738281 47.402344 L 199.511719 38.496094 C 198.300781 35.929688 197.09375 32.910156 196.265625 30.191406 L 196.1875 30.191406 C 196.339844 33.285156 196.1875 36.457031 195.960938 39.929688 L 195.433594 46.722656 L 190.601562 46.34375 Z M 167.957031 24.605469 L 170.296875 30.417969 L 176.941406 29.738281 L 177.996094 23.625 L 183.429688 23.09375 L 178.523438 47.101562 L 171.578125 47.78125 L 162.21875 25.132812 Z M 146.96875 28.605469 L 152.105469 27.398438 L 156.480469 45.816406 L 162.597656 44.382812 L 163.652344 48.683594 L 146.140625 52.835938 L 145.082031 48.535156 L 151.273438 47.023438 Z M 123.71875 35.929688 C 129.15625 33.664062 133.609375 35.324219 136.476562 42.269531 L 141.460938 54.347656 L 136.554688 56.386719 L 131.34375 43.929688 C 129.835938 40.230469 127.570312 38.871094 125.078125 39.929688 C 122.511719 40.984375 121.832031 43.402344 123.417969 47.175781 L 128.628906 59.632812 L 123.71875 61.667969 L 118.664062 49.515625 C 116.019531 42.871094 118.058594 38.269531 123.71875 35.929688 Z M 95.1875 51.476562 C 95.867188 51.855469 97.375 53.140625 99.488281 55.253906 C 101.601562 57.367188 102.808594 57.515625 104.699219 56.460938 L 106.054688 55.628906 L 101.074219 47.78125 L 105.527344 44.988281 L 117.757812 64.539062 C 116.472656 65.671875 114.433594 67.179688 112.019531 68.691406 C 109.074219 70.5 106.734375 71.40625 104.621094 71.105469 C 102.886719 70.878906 101.375 69.898438 100.167969 68.085938 C 98.582031 65.519531 99.261719 62.726562 100.621094 60.988281 L 100.546875 60.914062 C 98.808594 61.214844 97.222656 60.386719 95.5625 58.875 C 93.523438 56.988281 91.335938 54.800781 90.429688 54.269531 Z M 72.765625 69.066406 L 78.050781 72.386719 L 83.109375 67.933594 L 80.390625 62.347656 L 84.542969 58.726562 L 94.582031 80.996094 L 89.375 85.597656 L 68.464844 72.839844 Z M 32.683594 196.113281 C 28.984375 196.113281 25.964844 193.09375 25.964844 189.394531 C 25.964844 185.695312 28.984375 182.675781 32.683594 182.675781 C 36.378906 182.675781 39.398438 185.695312 39.398438 189.394531 C 39.398438 193.09375 36.378906 196.113281 32.683594 196.113281 Z M 56.460938 93.449219 L 53.0625 90.582031 L 62.5 79.410156 L 80.390625 94.507812 L 76.992188 98.582031 L 62.5 86.355469 Z M 64.3125 306.324219 L 77.296875 294.019531 L 77.21875 293.945312 L 72.765625 292.210938 L 75.03125 288.886719 L 81.144531 291.304688 L 84.164062 294.472656 L 67.859375 310.023438 Z M 83.410156 324.367188 C 78.804688 320.742188 80.011719 315.082031 83.9375 310.023438 C 87.9375 304.890625 93.375 302.550781 97.902344 306.175781 C 102.660156 309.875 101.226562 315.609375 97.375 320.441406 C 93.148438 325.878906 87.9375 327.914062 83.410156 324.367188 Z M 117.378906 332.371094 C 113.90625 338.410156 109.074219 341.203125 104.09375 338.332031 C 99.035156 335.464844 99.414062 329.574219 102.582031 324.066406 C 105.828125 318.402344 110.8125 315.308594 115.871094 318.175781 C 121.078125 321.195312 120.472656 327.007812 117.378906 332.371094 Z M 125.003906 348.75 L 144.933594 331.011719 L 147.648438 331.917969 L 127.644531 349.65625 Z M 124.324219 331.238281 C 125.683594 327.460938 129.003906 325.347656 132.628906 326.632812 C 136.328125 327.914062 137.382812 331.3125 136.175781 334.9375 C 134.589844 339.390625 130.96875 340.75 127.871094 339.617188 C 124.625 338.558594 122.964844 335.238281 124.324219 331.238281 Z M 148.40625 349.203125 C 146.820312 353.65625 143.195312 355.015625 140.101562 353.882812 C 136.855469 352.75 135.195312 349.429688 136.554688 345.429688 C 137.914062 341.652344 141.234375 339.539062 144.855469 340.824219 C 148.554688 342.183594 149.6875 345.578125 148.40625 349.203125 Z M 186.375 360.828125 L 180.863281 360.449219 L 176.5625 351.089844 C 175.355469 348.523438 174.070312 345.351562 173.089844 342.558594 L 173.015625 342.558594 C 172.9375 345.65625 172.789062 348.976562 172.484375 352.75 L 171.957031 359.769531 L 167.125 359.394531 L 168.863281 336.066406 L 175.050781 336.519531 L 179.28125 345.429688 C 180.488281 347.996094 181.695312 351.015625 182.527344 353.730469 L 182.601562 353.730469 C 182.449219 350.636719 182.601562 347.46875 182.828125 343.996094 L 183.355469 337.199219 L 188.1875 337.578125 Z M 61.820312 189.394531 C 61.820312 118.964844 118.890625 61.820312 189.394531 61.820312 C 259.902344 61.820312 316.96875 118.890625 316.96875 189.394531 C 316.96875 259.902344 259.902344 316.96875 189.394531 316.96875 C 118.890625 316.96875 61.820312 259.824219 61.820312 189.394531 Z M 210.832031 359.320312 L 208.492188 353.507812 L 201.851562 354.183594 L 200.792969 360.300781 L 195.359375 360.828125 L 200.265625 336.824219 L 207.210938 336.144531 L 216.644531 358.714844 Z M 231.820312 355.316406 L 226.6875 356.527344 L 222.308594 338.105469 L 216.191406 339.539062 L 215.136719 335.238281 L 232.648438 331.085938 L 233.707031 335.390625 L 227.515625 336.898438 Z M 255.070312 347.996094 C 249.632812 350.261719 245.179688 348.597656 242.3125 341.652344 L 237.328125 329.578125 L 242.238281 327.539062 L 247.445312 339.992188 C 248.953125 343.691406 251.21875 345.050781 253.710938 343.996094 C 256.277344 342.9375 256.957031 340.523438 255.371094 336.746094 L 250.164062 324.292969 L 255.070312 322.253906 L 260.128906 334.40625 C 262.769531 341.050781 260.730469 345.65625 255.070312 347.996094 Z M 283.605469 332.445312 C 282.925781 332.066406 281.414062 330.785156 279.300781 328.671875 C 277.1875 326.558594 275.980469 326.40625 274.09375 327.460938 L 272.734375 328.292969 L 277.640625 336.066406 L 273.1875 338.859375 L 260.957031 319.308594 C 262.242188 318.175781 264.277344 316.667969 266.695312 315.15625 C 269.640625 313.347656 271.980469 312.441406 274.09375 312.742188 C 275.828125 312.96875 277.339844 313.949219 278.546875 315.761719 C 280.132812 318.328125 279.453125 321.121094 278.09375 322.859375 L 278.167969 322.933594 C 279.90625 322.632812 281.492188 323.460938 283.152344 324.972656 C 285.1875 326.859375 287.378906 329.046875 288.285156 329.578125 Z M 306.023438 314.855469 L 300.738281 311.535156 L 295.683594 315.988281 L 298.398438 321.574219 L 294.246094 325.199219 L 284.207031 302.929688 L 289.417969 298.324219 L 310.328125 311.082031 Z M 316.289062 304.515625 L 298.398438 289.417969 L 301.796875 285.339844 L 316.289062 297.570312 L 322.253906 290.472656 L 325.652344 293.34375 Z M 345.277344 196.113281 C 341.578125 196.113281 338.558594 193.09375 338.558594 189.394531 C 338.558594 185.695312 341.578125 182.675781 345.277344 182.675781 C 348.976562 182.675781 351.996094 185.695312 351.996094 189.394531 C 351.996094 193.09375 348.976562 196.113281 345.277344 196.113281 Z M 345.277344 196.113281 " fill-opacity="1" fill-rule="nonzero"/></g><path fill="#347571" d="M 249.859375 46.875 C 248.425781 46.34375 247.292969 47.554688 246.386719 49.96875 C 245.632812 52.15625 245.632812 54.046875 247.144531 54.574219 C 248.652344 55.101562 249.9375 53.59375 250.617188 51.476562 C 251.445312 49.289062 251.296875 47.402344 249.859375 46.875 Z M 249.859375 46.875 " fill-opacity="1" fill-rule="nonzero"/><path fill="#347571" d="M 234.914062 40.382812 C 236.425781 40.910156 237.707031 39.398438 238.386719 37.285156 C 239.21875 35.097656 238.992188 33.210938 237.554688 32.683594 C 236.121094 32.152344 234.988281 33.359375 234.082031 35.777344 C 233.40625 37.964844 233.40625 39.777344 234.914062 40.382812 Z M 234.914062 40.382812 " fill-opacity="1" fill-rule="nonzero"/><path fill="#347571" d="M 289.265625 303.757812 C 289.945312 305.042969 290.851562 306.628906 291.453125 307.835938 L 293.71875 312.515625 L 297.570312 309.117188 L 293.191406 306.324219 C 291.90625 305.496094 290.472656 304.515625 289.265625 303.757812 Z M 289.265625 303.757812 " fill-opacity="1" fill-rule="nonzero"/><path fill="#347571" d="M 184.1875 272.128906 C 214.003906 247.292969 249.03125 253.863281 265.714844 230.308594 C 284.960938 203.132812 288.964844 160.257812 274.847656 106.585938 C 260.804688 143.421875 175.128906 143.800781 163.957031 197.171875 C 174.902344 205.097656 181.394531 218.308594 185.09375 234.839844 L 215.289062 196.792969 C 198.679688 220.875 188.941406 246.085938 184.1875 272.128906 Z M 184.1875 272.128906 " fill-opacity="1" fill-rule="nonzero"/><path fill="#347571" d="M 175.050781 266.394531 C 166.824219 250.3125 156.40625 237.632812 143.195312 229.175781 C 154.59375 241.332031 163.351562 256.050781 170.523438 272.207031 C 150.214844 262.695312 125.683594 265.714844 112.625 252.730469 C 98.355469 238.613281 93.375 215.363281 96.46875 182.375 C 105.601562 196.867188 142.59375 193.847656 156.480469 203.511719 C 176.488281 217.402344 184.335938 235.59375 175.050781 266.394531 Z M 175.050781 266.394531 " fill-opacity="1" fill-rule="nonzero"/></svg>