<svg xmlns="http://www.w3.org/2000/svg" xmlns:xlink="http://www.w3.org/1999/xlink" width="500" zoomAndPan="magnify" viewBox="0 0 375 374.999991" height="500" preserveAspectRatio="xMidYMid meet" version="1.0"><defs><clipPath id="id1"><path d="M 0 0 L 375 0 L 375 372.75 L 0 372.75 Z M 0 0 " clip-rule="nonzero"/></clipPath></defs><g clip-path="url(#id1)"><path fill="#347571" d="M 187.53125 362.652344 C 191.914062 362.652344 196.261719 364.132812 200.464844 365.566406 C 205.144531 367.164062 209.566406 368.671875 213.648438 368.085938 C 217.902344 367.480469 221.789062 364.742188 225.90625 361.839844 C 229.460938 359.335938 233.140625 356.746094 237.195312 355.554688 C 241.351562 354.335938 245.90625 354.53125 250.308594 354.714844 C 255.28125 354.925781 259.980469 355.125 263.777344 353.386719 C 267.648438 351.617188 270.585938 347.90625 273.703125 343.972656 C 276.417969 340.546875 279.226562 337.003906 282.8125 334.691406 C 286.429688 332.363281 290.84375 331.265625 295.109375 330.203125 C 299.953125 328.996094 304.527344 327.859375 307.703125 325.101562 C 310.894531 322.335938 312.667969 317.960938 314.546875 313.332031 C 316.203125 309.265625 317.910156 305.058594 320.722656 301.8125 C 323.527344 298.574219 327.445312 296.292969 331.230469 294.082031 C 335.554688 291.566406 339.636719 289.183594 341.929688 285.625 C 344.199219 282.097656 344.675781 277.410156 345.179688 272.449219 C 345.625 268.070312 346.082031 263.542969 347.878906 259.617188 C 349.648438 255.753906 352.746094 252.476562 355.738281 249.304688 C 359.191406 245.652344 362.449219 242.203125 363.652344 238.101562 C 364.820312 234.113281 363.957031 229.503906 363.039062 224.625 C 362.222656 220.28125 361.378906 215.785156 361.992188 211.476562 C 362.585938 207.304688 364.621094 203.304688 366.59375 199.433594 C 368.878906 194.941406 371.042969 190.695312 371.042969 186.375 C 371.042969 182.054688 368.878906 177.808594 366.59375 173.316406 C 364.621094 169.445312 362.585938 165.445312 361.992188 161.273438 C 361.378906 156.964844 362.222656 152.46875 363.039062 148.125 C 363.957031 143.246094 364.820312 138.636719 363.652344 134.648438 C 362.449219 130.546875 359.191406 127.097656 355.738281 123.445312 C 352.746094 120.273438 349.648438 117 347.878906 113.132812 C 346.082031 109.207031 345.625 104.679688 345.179688 100.300781 C 344.675781 95.339844 344.199219 90.65625 341.929688 87.125 C 339.636719 83.566406 335.554688 81.183594 331.230469 78.667969 C 327.445312 76.457031 323.527344 74.175781 320.722656 70.9375 C 317.910156 67.695312 316.203125 63.488281 314.546875 59.421875 C 312.667969 54.789062 310.894531 50.414062 307.703125 47.648438 C 304.527344 44.890625 299.953125 43.753906 295.109375 42.546875 C 290.84375 41.484375 286.429688 40.386719 282.8125 38.058594 C 279.226562 35.746094 276.417969 32.203125 273.703125 28.777344 C 270.585938 24.84375 267.648438 21.132812 263.777344 19.363281 C 259.980469 17.625 255.285156 17.824219 250.308594 18.035156 C 245.90625 18.21875 241.351562 18.414062 237.195312 17.195312 C 233.140625 16.003906 229.460938 13.414062 225.90625 10.910156 C 221.789062 8.007812 217.902344 5.269531 213.648438 4.664062 C 209.566406 4.082031 205.144531 5.585938 200.464844 7.183594 C 196.261719 8.617188 191.914062 10.097656 187.53125 10.097656 C 183.144531 10.097656 178.796875 8.617188 174.597656 7.183594 C 169.914062 5.585938 165.496094 4.082031 161.410156 4.664062 C 157.15625 5.269531 153.269531 8.007812 149.152344 10.910156 C 145.597656 13.414062 141.917969 16.003906 137.863281 17.195312 C 133.707031 18.410156 129.152344 18.21875 124.75 18.035156 C 119.777344 17.824219 115.078125 17.625 111.28125 19.363281 C 107.414062 21.132812 104.472656 24.84375 101.359375 28.777344 C 98.640625 32.203125 95.832031 35.746094 92.246094 38.058594 C 88.628906 40.386719 84.214844 41.484375 79.953125 42.546875 C 75.109375 43.753906 70.53125 44.890625 67.355469 47.648438 C 64.167969 50.414062 62.390625 54.789062 60.511719 59.417969 C 58.859375 63.488281 57.148438 67.695312 54.335938 70.9375 C 51.53125 74.175781 47.617188 76.457031 43.832031 78.664062 C 39.507812 81.183594 35.421875 83.566406 33.132812 87.125 C 30.859375 90.652344 30.382812 95.339844 29.878906 100.300781 C 29.433594 104.679688 28.972656 109.207031 27.179688 113.132812 C 25.414062 117 22.316406 120.273438 19.320312 123.445312 C 15.867188 127.097656 12.609375 130.546875 11.40625 134.648438 C 10.238281 138.636719 11.105469 143.246094 12.019531 148.125 C 12.839844 152.46875 13.683594 156.964844 13.070312 161.273438 C 12.476562 165.445312 10.4375 169.445312 8.46875 173.316406 C 6.179688 177.808594 4.019531 182.054688 4.019531 186.375 C 4.019531 190.695312 6.179688 194.941406 8.46875 199.433594 C 10.4375 203.304688 12.476562 207.304688 13.070312 211.476562 C 13.683594 215.785156 12.839844 220.28125 12.019531 224.625 C 11.105469 229.503906 10.238281 234.113281 11.40625 238.101562 C 12.609375 242.203125 15.867188 245.652344 19.320312 249.304688 C 22.316406 252.476562 25.414062 255.75 27.179688 259.617188 C 28.972656 263.542969 29.433594 268.070312 29.878906 272.449219 C 30.382812 277.410156 30.859375 282.09375 33.132812 285.625 C 35.421875 289.183594 39.507812 291.566406 43.832031 294.082031 C 47.617188 296.292969 51.53125 298.574219 54.335938 301.8125 C 57.148438 305.054688 58.859375 309.261719 60.511719 313.332031 C 62.390625 317.960938 64.167969 322.335938 67.355469 325.101562 C 70.53125 327.859375 75.109375 328.996094 79.953125 330.203125 C 84.214844 331.265625 88.628906 332.363281 92.246094 334.691406 C 95.832031 337.003906 98.640625 340.546875 101.359375 343.972656 C 104.472656 347.90625 107.414062 351.617188 111.277344 353.386719 C 115.078125 355.125 119.777344 354.925781 124.75 354.714844 C 129.152344 354.53125 133.707031 354.339844 137.863281 355.554688 C 141.917969 356.746094 145.597656 359.335938 149.152344 361.839844 C 153.269531 364.742188 157.15625 367.480469 161.410156 368.085938 C 165.492188 368.667969 169.914062 367.164062 174.597656 365.566406 C 178.796875 364.132812 183.144531 362.652344 187.53125 362.652344 Z M 211.808594 372.199219 C 207.570312 372.199219 203.316406 370.75 199.179688 369.339844 C 195.101562 367.953125 191.253906 366.640625 187.53125 366.640625 C 183.804688 366.640625 179.957031 367.953125 175.882812 369.339844 C 170.964844 371.019531 165.875 372.75 160.847656 372.035156 C 155.644531 371.292969 151.175781 368.144531 146.855469 365.101562 C 143.414062 362.675781 140.164062 360.386719 136.742188 359.382812 C 133.214844 358.347656 129.183594 358.519531 124.917969 358.699219 C 119.691406 358.921875 114.292969 359.148438 109.621094 357.011719 C 104.882812 354.84375 101.503906 350.578125 98.234375 346.453125 C 95.601562 343.132812 93.117188 339.996094 90.089844 338.046875 C 87.023438 336.070312 83.121094 335.101562 78.988281 334.074219 C 73.902344 332.804688 68.644531 331.496094 64.742188 328.113281 C 60.832031 324.722656 58.792969 319.695312 56.816406 314.832031 C 55.21875 310.890625 53.707031 307.167969 51.328125 304.421875 C 48.953125 301.6875 45.488281 299.667969 41.824219 297.53125 C 37.28125 294.882812 32.589844 292.148438 29.777344 287.78125 C 26.988281 283.449219 26.441406 278.0625 25.914062 272.855469 C 25.484375 268.609375 25.078125 264.601562 23.554688 261.273438 C 22.0625 258.011719 19.324219 255.113281 16.421875 252.042969 C 12.800781 248.210938 9.050781 244.246094 7.582031 239.226562 C 6.140625 234.316406 7.140625 229.015625 8.105469 223.886719 C 8.894531 219.675781 9.644531 215.695312 9.121094 212.039062 C 8.621094 208.523438 6.820312 204.988281 4.917969 201.246094 C 2.515625 196.527344 0.03125 191.652344 0.03125 186.375 C 0.03125 181.097656 2.515625 176.222656 4.917969 171.503906 C 6.820312 167.761719 8.621094 164.226562 9.121094 160.710938 C 9.644531 157.054688 8.894531 153.074219 8.105469 148.863281 C 7.140625 143.734375 6.140625 138.433594 7.582031 133.527344 C 9.050781 128.503906 12.800781 124.539062 16.421875 120.707031 C 19.324219 117.636719 22.0625 114.738281 23.554688 111.476562 C 25.078125 108.148438 25.484375 104.140625 25.914062 99.898438 C 26.441406 94.6875 26.988281 89.300781 29.777344 84.96875 C 32.589844 80.601562 37.28125 77.867188 41.824219 75.21875 C 45.488281 73.082031 48.953125 71.0625 51.328125 68.328125 C 53.707031 65.582031 55.21875 61.859375 56.816406 57.917969 C 58.792969 53.054688 60.832031 48.027344 64.742188 44.636719 C 68.644531 41.25 73.902344 39.945312 78.988281 38.675781 C 83.121094 37.648438 87.023438 36.679688 90.089844 34.703125 C 93.117188 32.753906 95.601562 29.617188 98.234375 26.296875 C 101.503906 22.171875 104.882812 17.902344 109.621094 15.738281 C 114.289062 13.601562 119.691406 13.828125 124.917969 14.050781 C 129.183594 14.230469 133.214844 14.402344 136.742188 13.367188 C 140.164062 12.363281 143.414062 10.074219 146.855469 7.648438 C 151.175781 4.605469 155.644531 1.457031 160.847656 0.714844 C 165.871094 0 170.960938 1.730469 175.882812 3.410156 C 179.957031 4.796875 183.804688 6.109375 187.53125 6.109375 C 191.253906 6.109375 195.101562 4.796875 199.179688 3.410156 C 204.097656 1.730469 209.183594 0 214.210938 0.714844 C 219.414062 1.457031 223.882812 4.605469 228.203125 7.648438 C 231.644531 10.074219 234.894531 12.363281 238.316406 13.367188 C 241.84375 14.402344 245.875 14.230469 250.140625 14.050781 C 255.367188 13.828125 260.769531 13.601562 265.4375 15.738281 C 270.175781 17.902344 273.554688 22.171875 276.828125 26.296875 C 279.457031 29.617188 281.941406 32.753906 284.972656 34.707031 C 288.035156 36.679688 291.9375 37.648438 296.070312 38.675781 C 301.15625 39.945312 306.414062 41.25 310.316406 44.636719 C 314.226562 48.027344 316.269531 53.054688 318.242188 57.917969 C 319.84375 61.859375 321.355469 65.582031 323.734375 68.328125 C 326.105469 71.0625 329.570312 73.082031 333.238281 75.21875 C 337.777344 77.867188 342.472656 80.605469 345.28125 84.96875 C 348.070312 89.300781 348.617188 94.6875 349.144531 99.898438 C 349.578125 104.140625 349.984375 108.148438 351.503906 111.476562 C 352.996094 114.738281 355.738281 117.636719 358.636719 120.707031 C 362.257812 124.539062 366.007812 128.503906 367.480469 133.527344 C 368.917969 138.433594 367.917969 143.734375 366.953125 148.863281 C 366.164062 153.074219 365.414062 157.054688 365.9375 160.710938 C 366.4375 164.226562 368.238281 167.761719 370.144531 171.503906 C 372.542969 176.222656 375.027344 181.097656 375.027344 186.375 C 375.027344 191.652344 372.542969 196.527344 370.144531 201.246094 C 368.238281 204.988281 366.4375 208.523438 365.9375 212.039062 C 365.414062 215.695312 366.164062 219.675781 366.953125 223.886719 C 367.917969 229.015625 368.917969 234.316406 367.480469 239.226562 C 366.007812 244.246094 362.257812 248.210938 358.636719 252.042969 C 355.738281 255.113281 352.996094 258.011719 351.503906 261.273438 C 349.984375 264.601562 349.578125 268.609375 349.144531 272.855469 C 348.617188 278.0625 348.070312 283.449219 345.28125 287.785156 C 342.472656 292.148438 337.777344 294.882812 333.238281 297.53125 C 329.570312 299.667969 326.105469 301.6875 323.734375 304.425781 C 321.355469 307.171875 319.84375 310.890625 318.242188 314.832031 C 316.269531 319.695312 314.226562 324.722656 310.316406 328.113281 C 306.414062 331.5 301.15625 332.804688 296.070312 334.074219 C 291.9375 335.101562 288.035156 336.070312 284.972656 338.046875 C 281.941406 339.996094 279.457031 343.132812 276.824219 346.453125 C 273.554688 350.578125 270.171875 354.84375 265.4375 357.011719 C 260.769531 359.148438 255.367188 358.921875 250.140625 358.699219 C 245.875 358.519531 241.839844 358.347656 238.316406 359.382812 C 234.894531 360.386719 231.644531 362.675781 228.203125 365.101562 C 223.882812 368.144531 219.414062 371.292969 214.210938 372.035156 C 213.414062 372.148438 212.609375 372.199219 211.808594 372.199219 " fill-opacity="1" fill-rule="nonzero"/></g><path fill="#347571" d="M 187.53125 75.152344 C 126.214844 75.152344 76.335938 125.046875 76.335938 186.375 C 76.335938 247.703125 126.214844 297.597656 187.53125 297.597656 C 248.84375 297.597656 298.726562 247.703125 298.726562 186.375 C 298.726562 125.046875 248.84375 75.152344 187.53125 75.152344 Z M 187.53125 301.585938 C 156.765625 301.585938 127.835938 289.601562 106.085938 267.839844 C 84.328125 246.082031 72.347656 217.148438 72.347656 186.375 C 72.347656 155.601562 84.328125 126.667969 106.085938 104.910156 C 127.835938 83.148438 156.765625 71.164062 187.53125 71.164062 C 218.296875 71.164062 247.21875 83.148438 268.976562 104.910156 C 290.730469 126.667969 302.710938 155.601562 302.710938 186.375 C 302.710938 217.148438 290.730469 246.082031 268.976562 267.839844 C 247.21875 289.601562 218.296875 301.585938 187.53125 301.585938 " fill-opacity="1" fill-rule="nonzero"/><path fill="#347571" d="M 234.558594 196.386719 L 187.53125 243.421875 L 140.503906 196.382812 C 134.84375 190.71875 131.730469 183.195312 131.730469 175.195312 C 131.730469 167.1875 134.84375 159.660156 140.503906 153.996094 C 146.152344 148.347656 153.679688 145.238281 161.691406 145.238281 C 169.703125 145.238281 177.222656 148.347656 182.878906 154 L 187.523438 158.660156 L 192.183594 154 C 197.84375 148.34375 205.367188 145.222656 213.367188 145.222656 C 221.371094 145.222656 228.894531 148.335938 234.558594 154 C 240.214844 159.660156 243.332031 167.1875 243.332031 175.195312 C 243.332031 183.195312 240.214844 190.71875 234.558594 196.386719 Z M 237.375 151.175781 C 230.964844 144.769531 222.4375 141.234375 213.367188 141.234375 C 204.308594 141.234375 195.78125 144.769531 189.363281 151.179688 L 187.53125 153.019531 L 185.695312 151.175781 C 179.289062 144.777344 170.769531 141.25 161.691406 141.25 C 152.613281 141.25 144.085938 144.777344 137.683594 151.175781 C 131.273438 157.59375 127.742188 166.125 127.742188 175.191406 C 127.742188 184.261719 131.273438 192.785156 137.683594 199.203125 L 187.53125 249.0625 L 237.375 199.203125 C 243.785156 192.785156 247.316406 184.261719 247.316406 175.191406 C 247.316406 166.125 243.785156 157.59375 237.375 151.175781 " fill-opacity="1" fill-rule="nonzero"/><path fill="#347571" d="M 34.136719 144.90625 L 62.054688 151.679688 L 61.046875 155.832031 L 37.597656 150.140625 L 39.492188 156.140625 L 35.007812 155.050781 L 33.132812 149.054688 L 34.136719 144.90625 " fill-opacity="1" fill-rule="nonzero"/><path fill="#347571" d="M 50.328125 118.9375 C 49.328125 119.078125 48.417969 119.445312 47.601562 120.035156 C 46.785156 120.628906 46.171875 121.382812 45.757812 122.304688 C 45.550781 122.757812 45.417969 123.230469 45.347656 123.714844 C 45.273438 124.203125 45.261719 124.6875 45.300781 125.164062 C 45.347656 125.648438 45.449219 126.121094 45.609375 126.582031 C 45.773438 127.050781 45.996094 127.476562 46.28125 127.871094 C 46.589844 128.402344 46.992188 128.839844 47.484375 129.1875 C 47.980469 129.535156 48.609375 129.882812 49.378906 130.226562 L 57.480469 133.859375 C 58.214844 134.1875 58.886719 134.425781 59.503906 134.578125 C 60.125 134.726562 60.757812 134.742188 61.417969 134.613281 C 62.410156 134.460938 63.296875 134.089844 64.078125 133.5 C 64.859375 132.914062 65.445312 132.179688 65.835938 131.304688 C 66.242188 130.398438 66.40625 129.457031 66.324219 128.484375 C 66.242188 127.511719 65.929688 126.605469 65.378906 125.773438 C 65.042969 125.242188 64.628906 124.800781 64.132812 124.445312 C 63.632812 124.089844 62.980469 123.730469 62.179688 123.371094 L 54.078125 119.738281 C 53.320312 119.398438 52.675781 119.171875 52.136719 119.058594 C 51.613281 118.917969 51.011719 118.878906 50.328125 118.9375 Z M 69.582031 124.632812 C 70.179688 125.953125 70.457031 127.316406 70.410156 128.730469 C 70.367188 130.144531 70.035156 131.539062 69.417969 132.914062 C 68.800781 134.289062 67.976562 135.472656 66.945312 136.464844 C 65.914062 137.457031 64.714844 138.152344 63.347656 138.546875 C 62.003906 138.894531 60.746094 139.011719 59.585938 138.894531 C 58.425781 138.765625 57.148438 138.390625 55.75 137.765625 L 47.644531 134.128906 C 46.21875 133.488281 45.078125 132.78125 44.234375 132.011719 C 43.339844 131.207031 42.589844 130.160156 41.988281 128.882812 C 41.433594 127.65625 41.175781 126.316406 41.210938 124.863281 C 41.21875 123.4375 41.527344 122.046875 42.140625 120.683594 C 42.429688 120.03125 42.78125 119.410156 43.183594 118.820312 C 43.585938 118.230469 44.046875 117.691406 44.558594 117.203125 C 45.074219 116.710938 45.632812 116.285156 46.238281 115.917969 C 46.839844 115.550781 47.484375 115.269531 48.160156 115.070312 C 49.464844 114.6875 50.722656 114.566406 51.933594 114.703125 C 53.132812 114.835938 54.433594 115.214844 55.832031 115.84375 L 63.9375 119.480469 C 65.347656 120.109375 66.492188 120.820312 67.371094 121.605469 C 68.273438 122.402344 69.011719 123.410156 69.582031 124.632812 " fill-opacity="1" fill-rule="nonzero"/><path fill="#347571" d="M 67.730469 91.164062 C 66.722656 91.089844 65.757812 91.257812 64.835938 91.660156 C 63.910156 92.070312 63.148438 92.675781 62.550781 93.488281 C 62.257812 93.890625 62.019531 94.320312 61.851562 94.78125 C 61.675781 95.242188 61.5625 95.710938 61.5 96.191406 C 61.441406 96.667969 61.441406 97.152344 61.5 97.640625 C 61.5625 98.128906 61.691406 98.597656 61.886719 99.042969 C 62.074219 99.625 62.375 100.136719 62.785156 100.582031 C 63.191406 101.027344 63.734375 101.496094 64.414062 101.996094 L 71.5625 107.261719 C 72.210938 107.738281 72.820312 108.117188 73.390625 108.394531 C 73.960938 108.671875 74.585938 108.820312 75.25 108.835938 C 76.253906 108.894531 77.199219 108.71875 78.085938 108.308594 C 78.976562 107.898438 79.703125 107.308594 80.269531 106.539062 C 80.863281 105.734375 81.21875 104.851562 81.34375 103.882812 C 81.472656 102.914062 81.355469 101.960938 80.996094 101.03125 C 80.78125 100.445312 80.464844 99.925781 80.054688 99.46875 C 79.644531 99.015625 79.085938 98.53125 78.375 98.007812 L 71.226562 92.742188 C 70.558594 92.25 69.976562 91.894531 69.476562 91.664062 C 68.992188 91.421875 68.410156 91.253906 67.730469 91.164062 Z M 85.34375 100.808594 C 85.652344 102.222656 85.632812 103.617188 85.285156 104.988281 C 84.945312 106.359375 84.324219 107.652344 83.429688 108.867188 C 82.535156 110.082031 81.480469 111.0625 80.261719 111.816406 C 79.042969 112.566406 77.726562 112.988281 76.308594 113.085938 C 74.917969 113.144531 73.667969 112.992188 72.554688 112.632812 C 71.449219 112.261719 70.28125 111.621094 69.046875 110.710938 L 61.898438 105.445312 C 60.632812 104.519531 59.671875 103.585938 59.007812 102.65625 C 58.304688 101.675781 57.792969 100.496094 57.476562 99.121094 C 57.191406 97.804688 57.222656 96.441406 57.566406 95.027344 C 57.875 93.640625 58.472656 92.34375 59.359375 91.140625 C 59.785156 90.5625 60.253906 90.03125 60.773438 89.539062 C 61.292969 89.050781 61.855469 88.617188 62.460938 88.25 C 63.066406 87.878906 63.703125 87.578125 64.371094 87.347656 C 65.039062 87.117188 65.726562 86.980469 66.429688 86.925781 C 67.785156 86.832031 69.039062 86.980469 70.195312 87.371094 C 71.339844 87.75 72.53125 88.398438 73.761719 89.308594 L 80.917969 94.574219 C 82.164062 95.492188 83.128906 96.429688 83.824219 97.378906 C 84.535156 98.347656 85.042969 99.492188 85.34375 100.808594 " fill-opacity="1" fill-rule="nonzero"/><path fill="#347571" d="M 110.753906 72.160156 C 110.152344 71.417969 109.355469 70.992188 108.367188 70.890625 C 107.378906 70.785156 106.515625 71.039062 105.769531 71.640625 C 105.007812 72.261719 104.574219 73.0625 104.46875 74.050781 C 104.367188 75.039062 104.617188 75.90625 105.222656 76.648438 C 105.832031 77.402344 106.632812 77.832031 107.621094 77.933594 C 108.605469 78.039062 109.480469 77.78125 110.246094 77.160156 C 110.988281 76.558594 111.410156 75.761719 111.515625 74.773438 C 111.621094 73.785156 111.363281 72.914062 110.753906 72.160156 Z M 102.421875 78.917969 C 101.8125 78.203125 101.382812 77.378906 101.140625 76.453125 C 100.898438 75.527344 100.828125 74.59375 100.929688 73.652344 C 101.027344 72.707031 101.296875 71.8125 101.726562 70.960938 C 102.164062 70.105469 102.742188 69.386719 103.464844 68.800781 C 104.210938 68.195312 105.042969 67.769531 105.960938 67.511719 C 106.882812 67.261719 107.804688 67.179688 108.734375 67.269531 C 109.664062 67.359375 110.554688 67.625 111.40625 68.066406 C 112.253906 68.511719 112.980469 69.109375 113.582031 69.871094 C 114.199219 70.613281 114.636719 71.445312 114.894531 72.371094 C 115.148438 73.292969 115.226562 74.21875 115.121094 75.148438 C 115.019531 76.074219 114.75 76.960938 114.308594 77.808594 C 113.871094 78.660156 113.28125 79.382812 112.535156 79.984375 C 111.785156 80.597656 110.945312 81.03125 110.027344 81.285156 C 109.105469 81.539062 108.183594 81.621094 107.261719 81.523438 C 106.335938 81.429688 105.449219 81.160156 104.597656 80.71875 C 103.75 80.277344 103.023438 79.675781 102.421875 78.917969 Z M 92.691406 91.695312 L 96.542969 55.179688 L 100.476562 55.589844 L 96.625 92.105469 Z M 87.914062 70.660156 C 87.3125 69.917969 86.515625 69.492188 85.527344 69.390625 C 84.523438 69.285156 83.65625 69.53125 82.921875 70.125 C 82.1875 70.722656 81.765625 71.523438 81.660156 72.527344 C 81.558594 73.515625 81.808594 74.382812 82.414062 75.125 C 83.015625 75.871094 83.808594 76.292969 84.800781 76.394531 C 85.785156 76.5 86.652344 76.25 87.394531 75.644531 C 88.140625 75.042969 88.5625 74.246094 88.667969 73.257812 C 88.769531 72.269531 88.519531 71.40625 87.914062 70.660156 Z M 79.585938 77.417969 C 78.972656 76.703125 78.546875 75.878906 78.304688 74.953125 C 78.0625 74.027344 77.992188 73.09375 78.089844 72.152344 C 78.191406 71.207031 78.457031 70.3125 78.890625 69.460938 C 79.324219 68.605469 79.90625 67.886719 80.628906 67.300781 C 81.371094 66.695312 82.203125 66.269531 83.125 66.011719 C 84.042969 65.757812 84.96875 65.679688 85.894531 65.769531 C 86.824219 65.859375 87.714844 66.125 88.566406 66.566406 C 89.417969 67.011719 90.140625 67.609375 90.742188 68.371094 C 91.363281 69.113281 91.800781 69.945312 92.054688 70.871094 C 92.3125 71.792969 92.386719 72.71875 92.28125 73.648438 C 92.183594 74.574219 91.910156 75.460938 91.472656 76.308594 C 91.035156 77.160156 90.441406 77.882812 89.699219 78.484375 C 88.945312 79.097656 88.109375 79.53125 87.1875 79.785156 C 86.269531 80.039062 85.347656 80.121094 84.421875 80.023438 C 83.5 79.925781 82.613281 79.660156 81.761719 79.21875 C 80.910156 78.777344 80.183594 78.175781 79.585938 77.417969 " fill-opacity="1" fill-rule="nonzero"/><path fill="#347571" d="M 146.5 32.011719 L 155.871094 59.175781 L 151.960938 60.523438 L 147.914062 48.789062 L 134.335938 53.476562 L 138.382812 65.210938 L 134.421875 66.578125 L 125.050781 39.417969 L 129.015625 38.046875 L 133.050781 49.746094 L 146.628906 45.058594 L 142.589844 33.363281 L 146.5 32.011719 " fill-opacity="1" fill-rule="nonzero"/><path fill="#347571" d="M 177.421875 45.648438 L 171.320312 32.101562 L 168.261719 46.621094 Z M 179.148438 49.414062 L 167.398438 50.664062 L 165.988281 57.304688 L 161.703125 57.757812 L 167.941406 28.203125 L 173.902344 27.570312 L 186.210938 55.15625 L 181.925781 55.609375 L 179.148438 49.414062 " fill-opacity="1" fill-rule="nonzero"/><path fill="#347571" d="M 211.347656 50.234375 L 213.949219 29.039062 L 218.152344 29.554688 L 214.648438 58.070312 L 210.449219 57.554688 L 199.003906 34.632812 L 196.402344 55.832031 L 192.203125 55.316406 L 195.703125 26.796875 L 199.902344 27.3125 L 211.347656 50.234375 " fill-opacity="1" fill-rule="nonzero"/><path fill="#347571" d="M 239.746094 59.472656 C 241.859375 58.265625 243.515625 56.039062 244.71875 52.796875 C 245.253906 51.355469 245.574219 49.953125 245.679688 48.59375 C 245.78125 47.234375 245.617188 45.972656 245.1875 44.816406 C 244.757812 43.671875 244.125 42.734375 243.292969 42.003906 C 242.460938 41.269531 241.429688 40.675781 240.195312 40.21875 L 234.972656 38.277344 L 227.742188 57.757812 L 232.925781 59.6875 C 234.113281 60.128906 235.289062 60.335938 236.457031 60.308594 C 237.621094 60.285156 238.71875 60.007812 239.746094 59.472656 Z M 249.046875 43.339844 C 249.765625 45.039062 250.085938 46.839844 250.011719 48.746094 C 249.9375 50.652344 249.539062 52.582031 248.8125 54.53125 C 248.109375 56.425781 247.148438 58.125 245.921875 59.628906 C 244.675781 61.15625 243.285156 62.3125 241.75 63.105469 C 240.191406 63.890625 238.542969 64.300781 236.800781 64.332031 C 235.058594 64.367188 233.308594 64.054688 231.550781 63.402344 L 222.355469 59.988281 L 232.355469 33.054688 L 241.582031 36.480469 C 243.390625 37.152344 244.929688 38.070312 246.210938 39.230469 C 247.488281 40.394531 248.433594 41.765625 249.046875 43.339844 " fill-opacity="1" fill-rule="nonzero"/><path fill="#347571" d="M 273.390625 87.066406 L 270.179688 84.839844 L 281.382812 68.671875 L 262.53125 79.535156 L 260.957031 78.445312 L 264.539062 57.039062 L 253.355469 73.175781 L 250.113281 70.925781 L 266.476562 47.3125 L 269.59375 49.472656 L 265.792969 73.152344 L 286.636719 61.289062 L 289.753906 63.449219 L 273.390625 87.066406 " fill-opacity="1" fill-rule="nonzero"/><path fill="#347571" d="M 296.539062 97.113281 L 304.15625 84.359375 L 290.5 90.160156 Z M 294.445312 100.6875 L 286.695312 91.765625 L 280.441406 94.40625 L 277.617188 91.152344 L 305.417969 79.355469 L 309.351562 83.878906 L 293.78125 109.765625 L 290.953125 106.511719 L 294.445312 100.6875 " fill-opacity="1" fill-rule="nonzero"/><path fill="#347571" d="M 310.410156 125.960938 C 312.792969 126.453125 315.507812 125.890625 318.558594 124.265625 C 319.914062 123.542969 321.082031 122.707031 322.0625 121.753906 C 323.042969 120.804688 323.757812 119.753906 324.203125 118.605469 C 324.640625 117.464844 324.789062 116.339844 324.652344 115.242188 C 324.515625 114.144531 324.136719 113.011719 323.519531 111.851562 L 320.898438 106.933594 L 302.5625 116.707031 L 305.167969 121.59375 C 305.761719 122.707031 306.503906 123.644531 307.390625 124.398438 C 308.28125 125.15625 309.285156 125.675781 310.410156 125.960938 Z M 328.070312 120.0625 C 327.480469 121.808594 326.523438 123.371094 325.203125 124.746094 C 323.882812 126.121094 322.304688 127.300781 320.46875 128.28125 C 318.6875 129.230469 316.839844 129.859375 314.925781 130.171875 C 312.976562 130.488281 311.167969 130.429688 309.496094 130.007812 C 307.8125 129.558594 306.304688 128.769531 304.980469 127.640625 C 303.65625 126.507812 302.550781 125.113281 301.667969 123.460938 L 297.054688 114.804688 L 322.40625 101.289062 L 327.035156 109.976562 C 327.941406 111.679688 328.488281 113.386719 328.671875 115.105469 C 328.855469 116.824219 328.65625 118.476562 328.070312 120.0625 " fill-opacity="1" fill-rule="nonzero"/><path fill="#347571" d="M 335.199219 139.070312 L 327.476562 141.242188 L 330.660156 152.5625 L 326.863281 153.632812 L 323.675781 142.3125 L 315.140625 144.714844 L 318.976562 158.339844 L 315.179688 159.410156 L 310.210938 141.746094 L 337.859375 133.960938 L 342.832031 151.625 L 339.03125 152.695312 L 335.199219 139.070312 " fill-opacity="1" fill-rule="nonzero"/><path fill="#347571" d="M 38.914062 247 L 37.75 243.273438 L 56.519531 237.402344 L 34.972656 234.386719 L 34.402344 232.558594 L 50.375 217.867188 L 31.640625 223.730469 L 30.464844 219.960938 L 57.878906 211.390625 L 59.011719 215.007812 L 41.46875 231.351562 L 65.199219 234.808594 L 66.332031 238.425781 L 38.914062 247 " fill-opacity="1" fill-rule="nonzero"/><path fill="#347571" d="M 62.53125 268.300781 L 72.105469 256.941406 L 57.691406 260.460938 Z M 59.882812 271.488281 L 53.675781 261.433594 L 47.078125 263.03125 L 44.816406 259.363281 L 74.15625 252.207031 L 77.304688 257.308594 L 57.761719 280.339844 L 55.5 276.671875 L 59.882812 271.488281 " fill-opacity="1" fill-rule="nonzero"/><path fill="#347571" d="M 81.933594 297.410156 C 84.355469 297.207031 86.800781 295.890625 89.261719 293.460938 C 90.351562 292.382812 91.234375 291.246094 91.902344 290.054688 C 92.574219 288.867188 92.957031 287.65625 93.058594 286.429688 C 93.148438 285.207031 92.972656 284.089844 92.527344 283.074219 C 92.085938 282.058594 91.402344 281.085938 90.476562 280.148438 L 86.5625 276.179688 L 71.773438 290.78125 L 75.664062 294.71875 C 76.550781 295.621094 77.53125 296.308594 78.597656 296.777344 C 79.664062 297.246094 80.777344 297.460938 81.933594 297.410156 Z M 97.175781 286.71875 C 97.113281 288.5625 96.640625 290.332031 95.769531 292.027344 C 94.898438 293.722656 93.71875 295.304688 92.238281 296.765625 C 90.800781 298.183594 89.210938 299.3125 87.464844 300.160156 C 85.6875 301.019531 83.9375 301.480469 82.214844 301.550781 C 80.46875 301.601562 78.800781 301.273438 77.210938 300.566406 C 75.617188 299.863281 74.160156 298.839844 72.839844 297.507812 L 65.953125 290.527344 L 86.398438 270.34375 L 93.3125 277.347656 C 94.664062 278.71875 95.675781 280.203125 96.34375 281.796875 C 97.007812 283.390625 97.289062 285.03125 97.175781 286.71875 " fill-opacity="1" fill-rule="nonzero"/><path fill="#347571" d="M 110.011719 296.855469 L 105.660156 303.597656 L 115.535156 309.976562 L 113.398438 313.292969 L 103.519531 306.910156 L 98.710938 314.359375 L 110.597656 322.042969 L 108.457031 325.355469 L 93.046875 315.398438 L 108.628906 291.265625 L 124.039062 301.21875 L 121.898438 304.535156 L 110.011719 296.855469 " fill-opacity="1" fill-rule="nonzero"/><path fill="#347571" d="M 176.128906 318.007812 L 161.5625 344.136719 L 157.515625 343.203125 L 156.304688 320.890625 L 145.496094 340.433594 L 141.464844 339.507812 L 139.738281 309.621094 L 144.015625 310.609375 L 145.050781 333.15625 L 155.75 313.3125 L 160.042969 314.300781 L 161.0625 336.84375 L 171.855469 317.023438 L 176.128906 318.007812 " fill-opacity="1" fill-rule="nonzero"/><path fill="#347571" d="M 187.222656 317.226562 L 186.65625 345.953125 L 182.484375 345.871094 L 183.050781 317.144531 L 187.222656 317.226562 " fill-opacity="1" fill-rule="nonzero"/><path fill="#347571" d="M 217.632812 318.308594 L 208.183594 319.609375 L 211.570312 344.164062 L 207.433594 344.734375 L 204.046875 320.179688 L 194.601562 321.484375 L 194.0625 317.574219 L 217.09375 314.398438 L 217.632812 318.308594 " fill-opacity="1" fill-rule="nonzero"/><path fill="#347571" d="M 244.335938 304.851562 L 254.445312 331.746094 L 250.574219 333.203125 L 246.203125 321.585938 L 232.761719 326.640625 L 237.128906 338.257812 L 233.203125 339.734375 L 223.09375 312.84375 L 227.019531 311.367188 L 231.375 322.949219 L 244.816406 317.890625 L 240.464844 306.308594 L 244.335938 304.851562 " fill-opacity="1" fill-rule="nonzero"/><path fill="#347571" d="M 265.25 291.808594 L 280.367188 311.449219 L 290.683594 303.503906 L 293.09375 306.632812 L 279.464844 317.125 L 261.941406 294.359375 L 265.25 291.808594 " fill-opacity="1" fill-rule="nonzero"/><path fill="#347571" d="M 309.511719 279.324219 C 309.007812 277.089844 307.492188 274.871094 304.96875 272.65625 C 302.480469 270.558594 300.035156 269.4375 297.628906 269.300781 C 296.28125 269.214844 295.003906 269.484375 293.792969 270.109375 C 292.585938 270.734375 291.503906 271.605469 290.558594 272.730469 C 290.121094 273.246094 289.746094 273.804688 289.429688 274.394531 C 289.113281 274.992188 288.867188 275.597656 288.695312 276.21875 C 288.519531 276.839844 288.425781 277.476562 288.40625 278.117188 C 288.390625 278.765625 288.457031 279.394531 288.609375 280.003906 C 289.050781 282.296875 290.558594 284.53125 293.136719 286.707031 C 295.757812 288.847656 298.210938 289.960938 300.5 290.039062 C 301.761719 290.148438 303.015625 289.902344 304.257812 289.296875 C 305.492188 288.683594 306.5625 287.84375 307.46875 286.769531 C 308.390625 285.675781 309.035156 284.484375 309.40625 283.191406 C 309.785156 281.871094 309.820312 280.582031 309.511719 279.324219 Z M 300.253906 294.210938 C 296.824219 294.144531 293.507812 292.757812 290.308594 290.058594 C 288.804688 288.789062 287.546875 287.386719 286.535156 285.847656 C 285.519531 284.308594 284.839844 282.664062 284.492188 280.917969 C 284.304688 279.972656 284.234375 279.023438 284.285156 278.074219 C 284.335938 277.125 284.5 276.183594 284.773438 275.253906 C 285.046875 274.324219 285.425781 273.421875 285.910156 272.539062 C 286.390625 271.660156 286.964844 270.828125 287.632812 270.035156 C 288.308594 269.234375 289.035156 268.527344 289.816406 267.921875 C 290.601562 267.308594 291.4375 266.78125 292.332031 266.332031 C 294.097656 265.449219 295.925781 265.03125 297.824219 265.078125 C 299.644531 265.144531 301.363281 265.535156 302.980469 266.257812 C 304.601562 266.980469 306.214844 267.988281 307.820312 269.277344 C 310.988281 272.03125 312.914062 275.070312 313.597656 278.382812 C 313.980469 280.324219 313.894531 282.238281 313.339844 284.113281 C 312.78125 285.992188 311.832031 287.726562 310.492188 289.320312 C 309.15625 290.898438 307.59375 292.136719 305.804688 293.03125 C 304.023438 293.902344 302.171875 294.292969 300.253906 294.210938 " fill-opacity="1" fill-rule="nonzero"/><path fill="#347571" d="M 299.066406 256.449219 L 301.023438 252.609375 L 326.472656 256.613281 L 308.308594 238.304688 L 310.265625 234.464844 L 331.617188 255.839844 L 328.902344 261.164062 L 299.066406 256.449219 " fill-opacity="1" fill-rule="nonzero"/><path fill="#347571" d="M 317.003906 225.683594 L 324.753906 227.757812 L 327.789062 216.394531 L 331.601562 217.414062 L 328.566406 228.773438 L 337.128906 231.066406 L 340.785156 217.390625 L 344.59375 218.40625 L 339.859375 236.136719 L 312.109375 228.71875 L 316.84375 210.992188 L 320.65625 212.007812 L 317.003906 225.683594 " fill-opacity="1" fill-rule="nonzero"/><path fill="#347571" d="M 42.320312 180.964844 L 42.257812 181.027344 L 42.191406 180.964844 C 41.378906 180.148438 40.296875 179.699219 39.148438 179.699219 C 37.996094 179.699219 36.914062 180.148438 36.101562 180.964844 C 35.289062 181.777344 34.839844 182.859375 34.839844 184.007812 C 34.839844 185.160156 35.289062 186.242188 36.101562 187.054688 L 42.257812 193.214844 L 48.414062 187.054688 C 49.226562 186.242188 49.675781 185.160156 49.675781 184.007812 C 49.675781 182.859375 49.226562 181.777344 48.414062 180.964844 C 47.597656 180.148438 46.519531 179.699219 45.367188 179.699219 C 44.214844 179.699219 43.136719 180.148438 42.320312 180.964844 " fill-opacity="1" fill-rule="nonzero"/><path fill="#347571" d="M 332.953125 180.964844 L 332.886719 181.027344 L 332.824219 180.964844 C 332.007812 180.148438 330.925781 179.699219 329.777344 179.699219 C 328.625 179.699219 327.542969 180.148438 326.730469 180.964844 C 325.917969 181.777344 325.46875 182.859375 325.46875 184.007812 C 325.46875 185.160156 325.917969 186.242188 326.730469 187.054688 L 332.886719 193.214844 L 339.042969 187.054688 C 339.855469 186.242188 340.304688 185.160156 340.304688 184.007812 C 340.304688 182.859375 339.855469 181.777344 339.042969 180.964844 C 338.230469 180.148438 337.148438 179.699219 335.996094 179.699219 C 334.847656 179.699219 333.765625 180.148438 332.953125 180.964844 " fill-opacity="1" fill-rule="nonzero"/></svg>