<svg xmlns="http://www.w3.org/2000/svg" xmlns:xlink="http://www.w3.org/1999/xlink" width="500" zoomAndPan="magnify" viewBox="0 0 375 374.999991" height="500" preserveAspectRatio="xMidYMid meet" version="1.0"><defs><clipPath id="id1"><path d="M 0 9 L 374 9 L 374 366.421875 L 0 366.421875 Z M 0 9 " clip-rule="nonzero"/></clipPath></defs><g clip-path="url(#id1)"><path fill="#ffffff" d="M 133.242188 266.632812 L 301.863281 266.632812 C 303.691406 266.621094 305.503906 266.460938 307.304688 266.152344 C 309.101562 265.839844 310.867188 265.386719 312.59375 264.792969 C 314.316406 264.195312 315.984375 263.460938 317.589844 262.589844 C 319.195312 261.71875 320.722656 260.726562 322.164062 259.605469 C 323.609375 258.488281 324.953125 257.257812 326.195312 255.921875 C 327.4375 254.582031 328.5625 253.152344 329.574219 251.628906 C 330.582031 250.105469 331.460938 248.511719 332.210938 246.84375 C 332.957031 245.175781 333.566406 243.460938 334.035156 241.695312 L 373.167969 97.710938 C 373.445312 96.527344 373.453125 95.347656 373.191406 94.160156 C 372.929688 92.976562 372.425781 91.90625 371.675781 90.953125 C 370.886719 90.085938 369.964844 89.386719 368.914062 88.867188 C 367.863281 88.34375 366.75 88.035156 365.582031 87.933594 L 75.933594 87.933594 L 56.085938 14.992188 C 55.875 14.160156 55.527344 13.382812 55.046875 12.667969 C 54.570312 11.953125 53.984375 11.335938 53.292969 10.820312 C 52.601562 10.308594 51.847656 9.921875 51.023438 9.664062 C 50.203125 9.410156 49.359375 9.300781 48.5 9.332031 L 0.496094 9.332031 L 0.496094 25.136719 L 42.632812 25.136719 L 61.921875 97.242188 L 61.921875 97.726562 L 101.089844 241.714844 C 101.382812 242.441406 101.820312 243.449219 102.21875 244.421875 L 115.550781 294.210938 C 114.035156 295.019531 112.578125 295.925781 111.183594 296.929688 C 109.789062 297.933594 108.464844 299.023438 107.21875 300.207031 C 105.96875 301.386719 104.804688 302.648438 103.726562 303.984375 C 102.648438 305.324219 101.664062 306.730469 100.773438 308.199219 C 99.886719 309.667969 99.097656 311.191406 98.414062 312.769531 C 97.726562 314.347656 97.152344 315.960938 96.683594 317.617188 C 96.214844 319.269531 95.859375 320.949219 95.621094 322.648438 C 95.378906 324.351562 95.25 326.0625 95.238281 327.78125 L 95.238281 335.875 L 96.195312 335.875 C 96.40625 336.933594 96.664062 337.984375 96.964844 339.019531 C 97.269531 340.058594 97.617188 341.082031 98.007812 342.089844 C 98.398438 343.097656 98.832031 344.085938 99.304688 345.054688 C 99.78125 346.027344 100.296875 346.976562 100.855469 347.902344 C 101.410156 348.828125 102.007812 349.726562 102.640625 350.601562 C 103.277344 351.476562 103.945312 352.324219 104.652344 353.140625 C 105.359375 353.960938 106.101562 354.746094 106.875 355.5 C 107.648438 356.253906 108.457031 356.972656 109.292969 357.65625 C 110.128906 358.339844 110.992188 358.988281 111.882812 359.597656 C 112.773438 360.210938 113.691406 360.78125 114.632812 361.3125 C 115.574219 361.84375 116.535156 362.335938 117.519531 362.785156 C 118.5 363.230469 119.5 363.636719 120.519531 364 C 121.535156 364.363281 122.566406 364.683594 123.613281 364.957031 C 124.660156 365.234375 125.714844 365.460938 126.777344 365.644531 C 127.84375 365.828125 128.914062 365.96875 129.992188 366.058594 C 131.066406 366.152344 132.144531 366.195312 133.226562 366.195312 C 134.488281 366.199219 135.75 366.136719 137.007812 366.015625 C 138.261719 365.894531 139.511719 365.710938 140.75 365.464844 C 141.988281 365.222656 143.214844 364.917969 144.421875 364.554688 C 145.632812 364.191406 146.820312 363.769531 147.988281 363.289062 C 149.15625 362.808594 150.300781 362.273438 151.414062 361.683594 C 152.53125 361.089844 153.617188 360.445312 154.667969 359.75 C 155.722656 359.050781 156.738281 358.304688 157.71875 357.507812 C 158.699219 356.710938 159.636719 355.867188 160.535156 354.980469 C 161.433594 354.089844 162.285156 353.160156 163.089844 352.1875 C 163.898438 351.214844 164.65625 350.207031 165.363281 349.160156 C 166.070312 348.117188 166.726562 347.039062 167.332031 345.929688 C 167.933594 344.816406 168.480469 343.679688 168.972656 342.519531 C 169.464844 341.355469 169.898438 340.167969 170.273438 338.964844 C 170.648438 337.757812 170.964844 336.535156 171.222656 335.300781 C 171.480469 334.0625 171.675781 332.816406 171.808594 331.558594 C 171.945312 330.304688 172.019531 329.042969 172.03125 327.78125 C 171.929688 323.710938 171.21875 319.75 169.898438 315.894531 C 168.578125 312.042969 166.707031 308.480469 164.285156 305.203125 L 270.785156 305.203125 C 268.363281 308.480469 266.488281 312.042969 265.164062 315.894531 C 263.839844 319.746094 263.128906 323.710938 263.023438 327.78125 C 263.035156 329.046875 263.109375 330.304688 263.246094 331.5625 C 263.378906 332.816406 263.574219 334.0625 263.832031 335.300781 C 264.089844 336.539062 264.40625 337.761719 264.78125 338.964844 C 265.160156 340.171875 265.59375 341.359375 266.085938 342.523438 C 266.578125 343.683594 267.125 344.824219 267.726562 345.933594 C 268.332031 347.042969 268.988281 348.121094 269.695312 349.167969 C 270.402344 350.214844 271.160156 351.222656 271.96875 352.195312 C 272.777344 353.167969 273.628906 354.097656 274.527344 354.984375 C 275.425781 355.875 276.363281 356.714844 277.34375 357.511719 C 278.324219 358.308594 279.339844 359.058594 280.394531 359.753906 C 281.449219 360.453125 282.53125 361.097656 283.648438 361.6875 C 284.765625 362.277344 285.910156 362.816406 287.078125 363.292969 C 288.246094 363.773438 289.433594 364.195312 290.644531 364.558594 C 291.855469 364.921875 293.078125 365.226562 294.320312 365.46875 C 295.558594 365.710938 296.808594 365.894531 298.066406 366.015625 C 299.320312 366.136719 300.582031 366.199219 301.847656 366.195312 C 302.925781 366.199219 304.007812 366.152344 305.085938 366.0625 C 306.160156 365.96875 307.234375 365.832031 308.300781 365.648438 C 309.363281 365.464844 310.421875 365.238281 311.464844 364.964844 C 312.511719 364.6875 313.542969 364.371094 314.5625 364.007812 C 315.582031 363.644531 316.582031 363.238281 317.566406 362.789062 C 318.550781 362.339844 319.511719 361.847656 320.453125 361.316406 C 321.394531 360.785156 322.3125 360.214844 323.207031 359.601562 C 324.097656 358.992188 324.960938 358.34375 325.800781 357.660156 C 326.636719 356.972656 327.441406 356.253906 328.21875 355.5 C 328.992188 354.746094 329.734375 353.957031 330.441406 353.140625 C 331.148438 352.324219 331.816406 351.476562 332.453125 350.601562 C 333.085938 349.722656 333.683594 348.820312 334.238281 347.894531 C 334.796875 346.96875 335.3125 346.019531 335.789062 345.046875 C 336.261719 344.074219 336.695312 343.085938 337.085938 342.078125 C 337.476562 341.066406 337.824219 340.042969 338.125 339.003906 C 338.425781 337.96875 338.683594 336.917969 338.894531 335.855469 L 339.851562 335.855469 L 339.851562 327.765625 C 339.863281 326.511719 339.808594 325.261719 339.695312 324.015625 C 339.585938 322.769531 339.410156 321.53125 339.175781 320.300781 C 338.941406 319.070312 338.644531 317.855469 338.289062 316.65625 C 337.933594 315.453125 337.523438 314.273438 337.050781 313.113281 C 336.578125 311.953125 336.054688 310.820312 335.46875 309.710938 C 334.886719 308.605469 334.25 307.527344 333.5625 306.480469 C 332.871094 305.4375 332.132812 304.429688 331.34375 303.457031 C 330.554688 302.484375 329.722656 301.550781 328.839844 300.664062 C 327.960938 299.773438 327.039062 298.929688 326.074219 298.128906 C 325.109375 297.332031 324.109375 296.582031 323.074219 295.878906 C 322.035156 295.179688 320.964844 294.53125 319.863281 293.9375 C 318.761719 293.34375 317.632812 292.804688 316.480469 292.320312 C 315.324219 291.835938 314.148438 291.410156 312.953125 291.042969 C 311.757812 290.675781 310.542969 290.367188 309.316406 290.121094 C 308.089844 289.871094 306.855469 289.6875 305.609375 289.558594 C 304.363281 289.433594 303.113281 289.371094 301.863281 289.367188 L 133.242188 289.367188 C 132.636719 289.367188 131.785156 289.609375 130.65625 289.695312 L 124.023438 264.949219 C 127 266.042969 130.074219 266.605469 133.242188 266.632812 Z M 133.242188 350.757812 C 132.5 350.75 131.757812 350.707031 131.019531 350.628906 C 130.28125 350.546875 129.546875 350.433594 128.816406 350.28125 C 128.089844 350.128906 127.371094 349.945312 126.660156 349.722656 C 125.949219 349.5 125.253906 349.246094 124.566406 348.953125 C 123.882812 348.664062 123.214844 348.34375 122.558594 347.988281 C 121.90625 347.628906 121.273438 347.246094 120.65625 346.828125 C 120.039062 346.410156 119.445312 345.960938 118.875 345.488281 C 118.304688 345.011719 117.757812 344.507812 117.234375 343.980469 C 116.710938 343.449219 116.214844 342.894531 115.746094 342.316406 C 115.277344 341.738281 114.839844 341.140625 114.429688 340.519531 C 114.019531 339.898438 113.640625 339.257812 113.292969 338.601562 C 112.945312 337.945312 112.632812 337.269531 112.351562 336.582031 C 112.070312 335.894531 111.820312 335.191406 111.609375 334.480469 C 111.398438 333.765625 111.21875 333.042969 111.078125 332.3125 C 110.933594 331.582031 110.828125 330.847656 110.757812 330.109375 C 110.6875 329.367188 110.65625 328.625 110.65625 327.878906 C 110.660156 327.136719 110.699219 326.394531 110.773438 325.652344 C 110.847656 324.914062 110.960938 324.179688 111.105469 323.449219 C 111.253906 322.71875 111.4375 322 111.652344 321.289062 C 111.871094 320.578125 112.121094 319.878906 112.40625 319.191406 C 112.695312 318.503906 113.011719 317.832031 113.363281 317.175781 C 113.714844 316.523438 114.097656 315.886719 114.511719 315.265625 C 114.925781 314.648438 115.371094 314.050781 115.84375 313.476562 C 116.3125 312.902344 116.8125 312.351562 117.339844 311.828125 C 117.867188 311.300781 118.417969 310.800781 118.992188 310.328125 C 119.566406 309.859375 120.164062 309.414062 120.78125 309 C 121.398438 308.585938 122.035156 308.207031 122.691406 307.855469 C 123.347656 307.503906 124.019531 307.183594 124.707031 306.898438 C 125.394531 306.613281 126.09375 306.363281 126.804688 306.144531 C 127.515625 305.929688 128.234375 305.746094 128.964844 305.601562 C 129.695312 305.453125 130.429688 305.34375 131.167969 305.269531 C 131.910156 305.195312 132.652344 305.15625 133.394531 305.152344 C 134.136719 305.152344 134.878906 305.1875 135.621094 305.257812 C 136.363281 305.328125 137.097656 305.433594 137.828125 305.578125 C 138.558594 305.71875 139.277344 305.898438 139.992188 306.113281 C 140.703125 306.324219 141.402344 306.574219 142.09375 306.855469 C 142.78125 307.136719 143.453125 307.453125 144.109375 307.800781 C 144.769531 308.148438 145.40625 308.527344 146.027344 308.9375 C 146.648438 309.347656 147.246094 309.785156 147.824219 310.253906 C 148.402344 310.726562 148.953125 311.222656 149.484375 311.746094 C 150.011719 312.265625 150.515625 312.816406 150.988281 313.386719 C 151.464844 313.960938 151.910156 314.554688 152.328125 315.171875 C 152.746094 315.785156 153.132812 316.421875 153.484375 317.074219 C 153.839844 317.730469 154.164062 318.398438 154.453125 319.082031 C 154.742188 319.769531 154.996094 320.46875 155.21875 321.175781 C 155.441406 321.886719 155.625 322.605469 155.777344 323.335938 C 155.925781 324.0625 156.042969 324.796875 156.121094 325.539062 C 156.199219 326.277344 156.242188 327.019531 156.25 327.765625 C 156.269531 328.523438 156.25 329.28125 156.195312 330.039062 C 156.136719 330.796875 156.042969 331.546875 155.910156 332.296875 C 155.777344 333.042969 155.605469 333.785156 155.398438 334.511719 C 155.1875 335.242188 154.945312 335.960938 154.664062 336.667969 C 154.382812 337.371094 154.066406 338.0625 153.714844 338.734375 C 153.363281 339.410156 152.980469 340.0625 152.5625 340.699219 C 152.144531 341.332031 151.695312 341.945312 151.214844 342.53125 C 150.738281 343.121094 150.230469 343.683594 149.691406 344.222656 C 149.15625 344.757812 148.59375 345.269531 148.003906 345.746094 C 147.417969 346.226562 146.804688 346.675781 146.171875 347.09375 C 145.539062 347.511719 144.882812 347.898438 144.210938 348.25 C 143.539062 348.601562 142.847656 348.917969 142.144531 349.199219 C 141.4375 349.480469 140.722656 349.726562 139.992188 349.933594 C 139.261719 350.144531 138.523438 350.316406 137.773438 350.449219 C 137.027344 350.582031 136.273438 350.679688 135.519531 350.734375 C 134.761719 350.792969 134.003906 350.8125 133.242188 350.792969 Z M 301.863281 350.757812 C 301.113281 350.777344 300.363281 350.761719 299.617188 350.707031 C 298.867188 350.65625 298.125 350.5625 297.382812 350.4375 C 296.644531 350.3125 295.914062 350.148438 295.1875 349.949219 C 294.464844 349.75 293.753906 349.515625 293.054688 349.246094 C 292.355469 348.976562 291.667969 348.671875 291 348.335938 C 290.328125 348 289.675781 347.628906 289.042969 347.226562 C 288.40625 346.828125 287.796875 346.394531 287.203125 345.933594 C 286.613281 345.46875 286.046875 344.980469 285.503906 344.460938 C 284.960938 343.945312 284.445312 343.402344 283.953125 342.832031 C 283.464844 342.261719 283.003906 341.671875 282.574219 341.054688 C 282.144531 340.441406 281.746094 339.808594 281.375 339.152344 C 281.007812 338.5 280.671875 337.828125 280.371094 337.144531 C 280.070312 336.457031 279.800781 335.753906 279.570312 335.042969 C 279.335938 334.328125 279.136719 333.605469 278.976562 332.871094 C 278.816406 332.140625 278.691406 331.402344 278.601562 330.65625 C 278.511719 329.910156 278.460938 329.164062 278.445312 328.410156 C 278.433594 327.660156 278.453125 326.914062 278.511719 326.164062 C 278.574219 325.417969 278.667969 324.671875 278.800781 323.933594 C 278.933594 323.195312 279.101562 322.464844 279.308594 321.742188 C 279.511719 321.019531 279.75 320.3125 280.027344 319.613281 C 280.300781 318.914062 280.609375 318.230469 280.953125 317.5625 C 281.292969 316.894531 281.667969 316.246094 282.074219 315.613281 C 282.480469 314.984375 282.917969 314.375 283.382812 313.785156 C 283.851562 313.199219 284.34375 312.636719 284.867188 312.097656 C 285.386719 311.558594 285.9375 311.046875 286.507812 310.5625 C 287.082031 310.074219 287.675781 309.621094 288.292969 309.195312 C 288.910156 308.769531 289.546875 308.375 290.203125 308.011719 C 290.863281 307.648438 291.535156 307.316406 292.222656 307.019531 C 292.914062 306.722656 293.613281 306.460938 294.328125 306.234375 C 295.042969 306.007812 295.769531 305.816406 296.503906 305.660156 C 297.238281 305.503906 297.976562 305.382812 298.722656 305.300781 C 299.46875 305.21875 300.214844 305.171875 300.964844 305.164062 C 301.714844 305.152344 302.464844 305.183594 303.214844 305.246094 C 303.960938 305.3125 304.703125 305.414062 305.441406 305.550781 C 306.179688 305.691406 306.90625 305.863281 307.625 306.074219 C 308.347656 306.285156 309.054688 306.53125 309.75 306.8125 C 310.445312 307.089844 311.128906 307.40625 311.792969 307.753906 C 312.457031 308.101562 313.105469 308.480469 313.730469 308.890625 C 314.359375 309.300781 314.964844 309.742188 315.550781 310.214844 C 316.132812 310.683594 316.691406 311.183594 317.226562 311.710938 C 317.761719 312.238281 318.269531 312.789062 318.75 313.363281 C 319.230469 313.941406 319.679688 314.539062 320.101562 315.160156 C 320.523438 315.78125 320.914062 316.421875 321.273438 317.082031 C 321.628906 317.742188 321.953125 318.417969 322.246094 319.109375 C 322.535156 319.800781 322.792969 320.503906 323.015625 321.222656 C 323.238281 321.9375 323.421875 322.664062 323.574219 323.398438 C 323.722656 324.136719 323.835938 324.875 323.914062 325.621094 C 323.992188 326.371094 324.03125 327.117188 324.035156 327.867188 C 324.050781 328.609375 324.03125 329.347656 323.976562 330.085938 C 323.921875 330.824219 323.828125 331.554688 323.699219 332.285156 C 323.570312 333.011719 323.40625 333.734375 323.207031 334.445312 C 323.007812 335.160156 322.773438 335.859375 322.503906 336.550781 C 322.234375 337.238281 321.929688 337.914062 321.59375 338.570312 C 321.257812 339.230469 320.890625 339.871094 320.488281 340.496094 C 320.089844 341.117188 319.660156 341.71875 319.203125 342.300781 C 318.742188 342.878906 318.253906 343.433594 317.742188 343.96875 C 317.226562 344.5 316.6875 345.003906 316.121094 345.484375 C 315.558594 345.960938 314.972656 346.410156 314.363281 346.832031 C 313.753906 347.25 313.125 347.640625 312.476562 347.996094 C 311.828125 348.355469 311.167969 348.679688 310.488281 348.972656 C 309.808594 349.265625 309.113281 349.523438 308.410156 349.746094 C 307.703125 349.96875 306.988281 350.15625 306.265625 350.3125 C 305.542969 350.464844 304.8125 350.582031 304.074219 350.660156 C 303.339844 350.742188 302.601562 350.785156 301.863281 350.792969 Z M 301.863281 350.757812 " fill-opacity="1" fill-rule="nonzero"/></g></svg>