<svg xmlns="http://www.w3.org/2000/svg" xmlns:xlink="http://www.w3.org/1999/xlink" width="500" zoomAndPan="magnify" viewBox="0 0 375 374.999991" height="500" preserveAspectRatio="xMidYMid meet" version="1.0"><defs><clipPath id="id1"><path d="M 31.550781 16 L 343.550781 16 L 343.550781 362 L 31.550781 362 Z M 31.550781 16 " clip-rule="nonzero"/></clipPath></defs><g clip-path="url(#id1)"><path fill="#5ad1a6" d="M 343.492188 210.207031 C 343.53125 213.6875 343.234375 217.164062 343.039062 220.640625 C 342.9375 222.382812 342.679688 224.109375 342.503906 225.84375 C 342.300781 227.574219 342.148438 229.316406 341.832031 231.03125 C 337.820312 258.679688 325.707031 285.140625 307.601562 306.667969 C 289.519531 328.210938 265.394531 344.878906 238.433594 353.839844 C 231.6875 356.023438 224.832031 357.957031 217.828125 359.183594 L 215.207031 359.691406 C 214.332031 359.855469 213.449219 359.953125 212.570312 360.085938 L 207.289062 360.835938 L 201.972656 361.332031 L 199.3125 361.570312 L 196.648438 361.6875 L 191.308594 361.898438 L 185.964844 361.855469 L 183.292969 361.824219 C 182.402344 361.792969 181.511719 361.722656 180.621094 361.671875 L 175.28125 361.34375 L 169.960938 360.753906 L 167.296875 360.457031 L 164.65625 360.023438 L 159.367188 359.144531 L 154.121094 358.015625 C 126.203125 351.707031 100.039062 337.464844 79.386719 317.339844 C 58.710938 297.246094 43.628906 271.285156 36.480469 243.101562 L 35.1875 237.800781 L 34.152344 232.449219 C 33.988281 231.554688 33.789062 230.664062 33.65625 229.769531 L 33.273438 227.066406 C 33.027344 225.265625 32.734375 223.46875 32.539062 221.660156 C 32.238281 218.039062 31.785156 214.417969 31.722656 210.777344 C 31.664062 208.960938 31.546875 207.140625 31.542969 205.320312 L 31.613281 199.855469 C 31.859375 185.277344 34.316406 170.722656 38.585938 156.714844 C 42.789062 142.671875 49.199219 129.316406 57.105469 116.933594 C 58.042969 115.351562 59.148438 113.878906 60.1875 112.363281 C 61.257812 110.867188 62.261719 109.324219 63.386719 107.871094 C 65.671875 104.992188 67.835938 102.007812 70.3125 99.28125 C 71.527344 97.894531 72.714844 96.484375 73.953125 95.125 C 74.855469 94.191406 75.554688 93.085938 76.042969 91.882812 C 106.832031 16.050781 213.726562 -12.777344 295.929688 53.078125 C 297.207031 54.101562 296.539062 56.164062 294.90625 56.230469 C 267.417969 57.335938 247.871094 81.53125 219.882812 103.191406 C 190.226562 126.144531 151.101562 146.246094 83.03125 133.003906 C 82.757812 132.957031 82.492188 132.894531 82.226562 132.832031 C 79.410156 132.140625 78.566406 128.546875 80.839844 126.746094 C 83.238281 124.847656 85.671875 122.980469 88.128906 121.140625 C 94.304688 116.523438 100.652344 112.082031 107.113281 107.796875 C 110.34375 105.652344 113.601562 103.546875 116.886719 101.472656 C 120.171875 99.410156 123.484375 97.382812 126.820312 95.394531 C 133.492188 91.40625 140.269531 87.589844 147.140625 83.941406 C 154.011719 80.296875 160.992188 76.84375 168.082031 73.628906 C 175.171875 70.414062 182.378906 67.445312 189.742188 64.890625 C 193.425781 63.613281 197.144531 62.445312 200.917969 61.441406 C 203.015625 60.875 205.128906 60.367188 207.253906 59.921875 C 207.507812 59.867188 207.441406 59.496094 207.191406 59.527344 C 205.023438 59.8125 202.867188 60.164062 200.714844 60.5625 C 196.855469 61.285156 193.019531 62.167969 189.21875 63.167969 C 181.613281 65.167969 174.121094 67.605469 166.722656 70.296875 C 159.328125 72.992188 152.019531 75.933594 144.800781 79.082031 C 137.578125 82.230469 130.4375 85.5625 123.375 89.074219 C 119.84375 90.832031 116.332031 92.628906 112.839844 94.46875 C 109.351562 96.308594 105.878906 98.195312 102.429688 100.117188 C 97.746094 102.734375 93.105469 105.441406 88.507812 108.234375 L 88.160156 108.570312 C 87.035156 109.734375 85.960938 110.945312 84.851562 112.128906 C 82.589844 114.457031 80.621094 117.035156 78.519531 119.507812 C 77.488281 120.761719 76.566406 122.097656 75.582031 123.386719 C 74.625 124.699219 73.601562 125.960938 72.738281 127.335938 C 65.433594 138.0625 59.375 149.71875 55.269531 162.097656 C 51.09375 174.441406 48.488281 187.367188 47.878906 200.472656 L 47.664062 205.382812 C 47.613281 207.019531 47.679688 208.660156 47.679688 210.304688 C 47.628906 213.585938 47.949219 216.855469 48.113281 220.136719 C 48.242188 221.773438 48.464844 223.398438 48.632812 225.03125 L 48.902344 227.484375 C 48.992188 228.296875 49.15625 229.105469 49.277344 229.917969 L 50.066406 234.78125 L 51.09375 239.601562 C 56.785156 265.28125 69.773438 289.417969 88.253906 308.503906 C 106.707031 327.605469 130.554688 341.59375 156.484375 348.285156 L 161.355469 349.488281 L 166.285156 350.460938 L 168.753906 350.941406 L 171.242188 351.296875 L 176.222656 352 L 181.234375 352.460938 C 182.070312 352.535156 182.90625 352.625 183.742188 352.683594 L 186.261719 352.785156 L 191.296875 352.984375 L 196.339844 352.933594 L 198.863281 352.898438 L 201.382812 352.75 L 206.417969 352.429688 L 211.4375 351.871094 C 212.269531 351.773438 213.113281 351.707031 213.945312 351.578125 L 216.441406 351.167969 C 223.113281 350.210938 229.667969 348.5625 236.148438 346.683594 C 262.035156 338.945312 285.691406 323.707031 303.816406 303.390625 C 321.953125 283.097656 334.597656 257.6875 339.355469 230.621094 C 339.726562 228.945312 339.925781 227.242188 340.175781 225.539062 C 340.398438 223.835938 340.703125 222.144531 340.855469 220.4375 C 341.15625 217.011719 341.554688 213.59375 341.613281 210.152344 C 341.78125 206.714844 341.863281 203.277344 341.746094 199.832031 C 341.664062 196.390625 341.46875 192.949219 341.140625 189.519531 C 339.867188 175.792969 336.695312 162.210938 331.707031 149.300781 C 337.082031 162.058594 340.683594 175.589844 342.382812 189.382812 C 342.820312 192.832031 343.121094 196.296875 343.308594 199.769531 C 343.53125 203.242188 343.554688 206.726562 343.492188 210.207031 " fill-opacity="1" fill-rule="nonzero"/></g></svg>