<svg xmlns="http://www.w3.org/2000/svg" xmlns:xlink="http://www.w3.org/1999/xlink" width="500" zoomAndPan="magnify" viewBox="0 0 375 374.999991" height="500" preserveAspectRatio="xMidYMid meet" version="1.0"><defs><g/></defs><g fill="#347571" fill-opacity="1"><g transform="translate(37.914167, 212.182963)"><g><path d="M 30.898438 0.699219 C 49.695312 0.699219 63.496094 -6.300781 63.496094 -18 C 63.496094 -27.5 54.394531 -32.796875 40.996094 -34.496094 C 51.597656 -36.898438 58.394531 -42.195312 58.394531 -50.496094 C 58.394531 -62.195312 44.597656 -68.496094 25.796875 -68.496094 C 15.898438 -68.496094 2.300781 -63.996094 2.300781 -46.796875 L 2.300781 0 L 20.597656 0 C 23.796875 0.398438 27.296875 0.699219 30.898438 0.699219 Z M 25.398438 -34.898438 L 25.398438 -32.699219 C 30.199219 -32.699219 35.699219 -29.5 40.199219 -22.296875 C 45.398438 -13.800781 44.398438 -5.101562 40.597656 -3 C 35.597656 -0.300781 30.097656 -2.300781 24.199219 -9.097656 L 24.199219 -37.796875 C 24.199219 -50.695312 12.097656 -50.097656 9.597656 -55.996094 C 8.597656 -58.496094 9.398438 -62.597656 16 -62.597656 C 21.296875 -62.597656 28 -59.796875 32.597656 -53.996094 C 41.796875 -42.496094 36.398438 -35.097656 25.398438 -34.898438 Z M 25.398438 -34.898438 "/></g></g></g><g fill="#347571" fill-opacity="1"><g transform="translate(112.504532, 212.182963)"><g><path d="M 54.894531 -26.296875 L 52.398438 -26.398438 C 52.898438 -23.199219 50.296875 -17.5 45.296875 -17.5 C 40.398438 -17.5 34.699219 -25.296875 24.796875 -25.296875 C 17.898438 -25.296875 9.699219 -22 5.300781 -13.699219 C 8.5 -29.296875 24.199219 -24.898438 24.199219 -36.496094 L 24.199219 -67.796875 L 2.300781 -67.796875 L 2.300781 0 L 4.800781 0 C 4.800781 -4.800781 6 -10 13 -10 C 19.898438 -10 22.199219 0.699219 37.097656 0.699219 C 56.195312 0.699219 56.796875 -17.300781 54.894531 -26.296875 Z M 54.894531 -26.296875 "/></g></g></g><g fill="#347571" fill-opacity="1"><g transform="translate(179.196057, 212.182963)"><g><path d="M 24.199219 0 L 24.199219 -67.796875 L 2.300781 -67.796875 L 2.300781 0 Z M 24.199219 0 "/></g></g></g><g fill="#347571" fill-opacity="1"><g transform="translate(214.992136, 212.182963)"><g><path d="M 1.800781 -47.898438 C 1.800781 -34.699219 11.800781 -29.796875 25.5 -25.796875 C 42.398438 -20.796875 51.898438 -12.800781 47.195312 -8.597656 C 38.796875 -1.199219 33.597656 -24.699219 18.699219 -24.699219 C 3.898438 -24.699219 0.800781 -10.898438 2.300781 0.101562 L 4.5 0.101562 C 4.5 -4.300781 5.5 -7.097656 10.5 -7.097656 C 15.5 -7.097656 22 0.699219 31.898438 0.699219 C 44.796875 0.699219 54.597656 -9.199219 54.597656 -20.398438 C 54.597656 -34.296875 37.097656 -40.296875 28.699219 -42.695312 C 11.800781 -47.398438 4 -55.097656 8.800781 -59.097656 C 17.597656 -66.394531 21 -43.097656 35.898438 -43.097656 C 50.796875 -43.097656 53.796875 -56.894531 52.398438 -67.894531 L 50.097656 -67.894531 C 50.097656 -63.496094 49.097656 -60.695312 44.097656 -60.695312 C 39.199219 -60.695312 33.996094 -68.394531 24.097656 -68.394531 C 11.398438 -68.394531 1.800781 -58.894531 1.800781 -47.898438 Z M 1.800781 -47.898438 "/></g></g></g><g fill="#347571" fill-opacity="1"><g transform="translate(280.683801, 212.182963)"><g><path d="M 1.800781 -47.898438 C 1.800781 -34.699219 11.800781 -29.796875 25.5 -25.796875 C 42.398438 -20.796875 51.898438 -12.800781 47.195312 -8.597656 C 38.796875 -1.199219 33.597656 -24.699219 18.699219 -24.699219 C 3.898438 -24.699219 0.800781 -10.898438 2.300781 0.101562 L 4.5 0.101562 C 4.5 -4.300781 5.5 -7.097656 10.5 -7.097656 C 15.5 -7.097656 22 0.699219 31.898438 0.699219 C 44.796875 0.699219 54.597656 -9.199219 54.597656 -20.398438 C 54.597656 -34.296875 37.097656 -40.296875 28.699219 -42.695312 C 11.800781 -47.398438 4 -55.097656 8.800781 -59.097656 C 17.597656 -66.394531 21 -43.097656 35.898438 -43.097656 C 50.796875 -43.097656 53.796875 -56.894531 52.398438 -67.894531 L 50.097656 -67.894531 C 50.097656 -63.496094 49.097656 -60.695312 44.097656 -60.695312 C 39.199219 -60.695312 33.996094 -68.394531 24.097656 -68.394531 C 11.398438 -68.394531 1.800781 -58.894531 1.800781 -47.898438 Z M 1.800781 -47.898438 "/></g></g></g></svg>