<svg xmlns="http://www.w3.org/2000/svg" xmlns:xlink="http://www.w3.org/1999/xlink" width="500" zoomAndPan="magnify" viewBox="0 0 375 374.999991" height="500" preserveAspectRatio="xMidYMid meet" version="1.0"><defs><g/></defs><path fill="#347571" d="M 187.445312 255.433594 C 169.261719 255.433594 152.140625 248.355469 139.296875 235.484375 C 126.421875 222.636719 119.34375 205.515625 119.34375 187.332031 C 119.34375 169.148438 126.421875 152.027344 139.296875 139.179688 C 152.140625 126.308594 169.261719 119.230469 187.445312 119.230469 C 205.628906 119.230469 222.75 126.308594 235.597656 139.179688 C 248.472656 152.054688 255.546875 169.148438 255.546875 187.332031 C 255.546875 205.515625 248.472656 222.636719 235.597656 235.484375 C 222.75 248.355469 205.628906 255.433594 187.445312 255.433594 Z M 187.445312 123.3125 C 170.351562 123.3125 154.265625 129.980469 142.179688 142.066406 C 130.09375 154.152344 123.425781 170.238281 123.425781 187.332031 C 123.425781 204.425781 130.09375 220.511719 142.179688 232.597656 C 154.265625 244.683594 170.351562 251.351562 187.445312 251.351562 C 204.539062 251.351562 220.625 244.683594 232.710938 232.597656 C 244.796875 220.511719 251.464844 204.425781 251.464844 187.332031 C 251.464844 170.238281 244.796875 154.152344 232.710938 142.066406 C 220.625 129.980469 204.539062 123.3125 187.445312 123.3125 Z M 187.445312 123.3125 " fill-opacity="1" fill-rule="nonzero"/><g fill="#347571" fill-opacity="1"><g transform="translate(154.845989, 220.734607)"><g><path d="M 30.898438 0.699219 C 49.699219 0.699219 63.496094 -6.300781 63.496094 -18 C 63.496094 -27.5 54.398438 -32.796875 41 -34.5 C 51.597656 -36.898438 58.398438 -42.199219 58.398438 -50.5 C 58.398438 -62.199219 44.597656 -68.496094 25.800781 -68.496094 C 15.898438 -68.496094 2.300781 -63.996094 2.300781 -46.796875 L 2.300781 0 L 20.597656 0 C 23.800781 0.398438 27.300781 0.699219 30.898438 0.699219 Z M 25.398438 -34.898438 L 25.398438 -32.699219 C 30.199219 -32.699219 35.699219 -29.5 40.199219 -22.300781 C 45.398438 -13.800781 44.398438 -5.101562 40.597656 -3 C 35.597656 -0.300781 30.097656 -2.300781 24.199219 -9.101562 L 24.199219 -37.796875 C 24.199219 -50.699219 12.097656 -50.097656 9.601562 -55.996094 C 8.601562 -58.496094 9.398438 -62.597656 16 -62.597656 C 21.300781 -62.597656 28 -59.796875 32.597656 -53.996094 C 41.796875 -42.5 36.398438 -35.097656 25.398438 -34.898438 Z M 25.398438 -34.898438 "/></g></g></g></svg>