<svg xmlns="http://www.w3.org/2000/svg" xmlns:xlink="http://www.w3.org/1999/xlink" width="500" zoomAndPan="magnify" viewBox="0 0 375 374.999991" height="500" preserveAspectRatio="xMidYMid meet" version="1.0"><defs><clipPath id="id1"><path d="M 9 24.375 L 366 24.375 L 366 337.875 L 9 337.875 Z M 9 24.375 " clip-rule="nonzero"/></clipPath></defs><g clip-path="url(#id1)"><path fill="#ffffff" d="M 336.84375 52.992188 C 318.402344 34.53125 293.871094 24.359375 267.792969 24.359375 C 241.714844 24.359375 217.1875 34.523438 198.75 52.992188 L 187.542969 64.203125 L 176.339844 52.988281 C 157.898438 34.523438 133.378906 24.351562 107.292969 24.351562 C 81.207031 24.351562 56.683594 34.515625 38.242188 52.988281 C 0.167969 91.105469 0.167969 153.128906 38.242188 191.25 L 182.695312 335.875 C 184.03125 337.210938 185.789062 337.886719 187.542969 337.886719 C 189.296875 337.886719 191.054688 337.210938 192.390625 335.875 L 336.84375 191.25 C 374.917969 153.132812 374.917969 91.105469 336.84375 52.992188 Z M 336.84375 52.992188 " fill-opacity="1" fill-rule="nonzero"/></g></svg>